<?xml version="1.0" encoding="UTF-8"?>
<!-- Generator: visioncortex VTracer 0.6.4 -->
<svg version="1.1" xmlns="http://www.w3.org/2000/svg" width="1024" height="1024">
<path d="M0 0 C4.848513944977697 0.002314069280714648 9.697024697735287 -0.001254845932180615 14.545537948608398 -0.003979921340942383 C23.993815488713267 -0.008376117543093642 33.442084987060866 -0.007488282085546416 42.890362814068794 -0.004567280411720276 C50.59778284192237 -0.002285768426077084 58.30520065541532 -0.002012463513324292 66.01262092590332 -0.003091096878051758 C67.12014517210423 -0.0032443299144233606 68.22766941830514 -0.0033975629507949634 69.36875500530005 -0.0035554394125938416 C71.620699098339 -0.003875257360618889 73.87264319075769 -0.004199472779760072 76.12458728253841 -0.004528030753135681 C97.14273800509972 -0.00736560510461004 118.16088433611401 -0.00412453259934864 139.1790343374014 0.0012723356485366821 C157.07063902827372 0.005725073209987386 174.9622372124711 0.004973733479005205 192.8538417816162 0.0003535747528076172 C213.775438079658 -0.0050467262460642814 234.6970305303612 -0.007076849932900586 255.61862742900848 -0.004034161567687988 C257.86786834341456 -0.003715722455353898 260.1171092584 -0.0034013493316251697 262.3663501739502 -0.003091096878051758 C264.0250146510824 -0.0028596835956022915 264.0250146510824 -0.0028596835956022915 265.7171875014901 -0.0026235952973365784 C273.3713125503864 -0.0017736089033633107 281.02543504676305 -0.0032152638540310363 288.6795597076416 -0.005570650100708008 C314.6804555303263 -0.012653196867063343 340.6810214592165 0.007117111340562587 366.68170511722565 0.12002861499786377 C368.3223865749055 0.127105453145532 369.96306905317283 0.13394985954391814 371.60375249385834 0.14055097103118896 C381.07353337189284 0.1786792102382151 390.5425006882075 0.23864487121227285 400.01174330711365 0.3482084274291992 C402.50096799814287 0.37490750605104495 404.9902685051379 0.3954332870540611 407.479599237442 0.40903139114379883 C410.80955276263774 0.42914733079373946 414.1382400280585 0.47389352956463426 417.4678249359131 0.5260188579559326 C418.4042837595939 0.5268305802345594 419.34074258327485 0.5276423025130725 420.30557894706726 0.5284786224365234 C430.9810175673032 0.761786729728442 440.8845947733613 4.481862445119077 448.3489589691162 12.255724668502808 C455.97803049952483 22.002913439856798 454.60262045475565 34.547620035914974 454.5598964691162 46.25963091850281 C454.561920703591 48.21918096784384 454.564835045717 50.17873027953431 454.56859397888184 52.138277769088745 C454.5729998213719 56.23080424868499 454.56664183766964 60.323133364336854 454.5525722503662 64.41563677787781 C454.5354701352959 69.64297968774781 454.54533922717906 74.86986075028051 454.563289642334 80.09718680381775 C454.57416491771085 84.13883154071027 454.5706641816796 88.1803679784914 454.5629062652588 92.22201609611511 C454.56091519171787 94.14880117819405 454.5633248272634 96.07559632006212 454.57034492492676 98.00236964225769 C454.5780226085494 100.70109752966277 454.56626801341713 103.39909197516727 454.5496425628662 106.09776568412781 C454.55571525573725 106.88191348075861 454.5617879486084 107.66606127738953 454.5680446624756 108.47397112846375 C454.46533668215284 117.54076263426373 451.6253204412234 125.65271907938882 445.1614589691162 132.1307246685028 C433.9073793333008 140.77420883324203 418.8237045073207 139.52746828847717 405.36652183532715 139.74664568901062 C403.40827192430083 139.7843506411964 401.45002718240823 139.8223248979184 399.4917873740196 139.86055094003677 C379.0062619099697 140.2389103070883 358.52010225185677 140.28100984818388 338.03170788288116 140.27610838413239 C332.54274453721837 140.2758992878148 327.05378599220967 140.28146927140529 321.5648250579834 140.2861659526825 C310.88899741290015 140.29435799207772 300.2131752935745 140.29721525214973 289.5373447611928 140.2977783307433 C280.8604937148425 140.2982577970547 272.1836444550736 140.30033361043047 263.5067939758301 140.30347895622253 C238.82004239978573 140.31224414737358 214.13329511687903 140.31690335678059 189.44654197245836 140.3161484822631 C188.78586176221256 140.3161285370495 188.12518155196676 140.31610859183593 187.44448072928935 140.31608804222196 C186.10844974122483 140.31604760457708 184.77241875320078 140.3160058066735 183.4363877652213 140.31596265081316 C162.57105626861028 140.31534759183126 141.70574092547548 140.3229114052881 120.84041404724121 140.3365352153778 C97.2929455444272 140.3519047400065 73.74548477760408 140.36048875177266 50.19801038503647 140.35957199335098 C37.76521118559435 140.35924062832862 25.332430301160684 140.36196298280925 12.899635314941406 140.37275004386902 C2.3429655799558304 140.38185276419972 -8.21367747460954 140.3840311158176 -18.77034943550825 140.3772406205535 C-24.149367234933663 140.37397800271742 -29.52833381172826 140.37391022977272 -34.90734672546387 140.38259387016296 C-39.83521251454488 140.39046781075967 -44.76298651179377 140.3890184395649 -49.69085008651018 140.38030973821878 C-51.46768218072668 140.37877707415078 -53.24452116203213 140.3805820550259 -55.021345131099224 140.38616981357336 C-87.1093770160347 140.48035981314104 -87.1093770160347 140.48035981314104 -97.81510353088379 130.2400996685028 C-106.59385690058127 119.25584668375814 -105.99613209935151 106.03127681447859 -105.97135353088379 92.61509966850281 C-105.972310256958 91.44223406791684 -105.97326698303223 90.26936846733088 -105.97425270080566 89.06096148490906 C-105.97492973851533 86.58681949830009 -105.97310886272862 84.1126756884064 -105.96891212463379 81.63853716850281 C-105.96361541311549 77.93276518261302 -105.9688432939744 74.22711764662847 -105.97525978088379 70.52134966850281 C-105.97946170819822 59.09067489804784 -105.88348177505475 47.67087872697414 -105.44010353088379 36.24791216850281 C-105.40764533996582 35.31726946830747 -105.37518714904786 34.38662676811214 -105.34174537658691 33.42778277397156 C-104.97982776862375 25.359220650361408 -103.70698409807679 18.603050486683856 -98.46354103088379 12.255724668502808 C-97.16416603088379 11.203849668502812 -97.16416603088379 11.203849668502812 -95.83854103088379 10.130724668502808 C-95.32807228088379 9.691154356002812 -94.81760353088379 9.251584043502817 -94.29166603088379 8.798693418502808 C-83.92424258795273 -0.1059994891631959 -71.18383363009747 0.771937843115893 -58.127634048461914 0.5138118267059326 C-56.49607960358975 0.4760026650697 -54.86452958011773 0.43800229619239417 -53.23298370838165 0.39982497692108154 C-35.490257281553056 0.007966007104300843 -17.746202856444597 -0.012603890087461878 0 0 Z " fill="#FE7C8E" transform="translate(342.8385410308838,594.8692753314972)"/>
<path d="M0 0 C0.8616209328174591 -0.0020526337623323343 1.7232418656349182 -0.004105267524721512 2.61097252368927 -0.006220102310180664 C5.505963451569414 -0.011886723478312433 8.400906754031496 -0.010433266279335385 11.295902252197266 -0.009014129638671875 C13.38935279881133 -0.011597949534518648 15.48280285227338 -0.014611157149715837 17.576252222061157 -0.01801753044128418 C23.335391947390463 -0.02608864560568236 29.094519209960424 -0.027877163904747704 34.8536639213562 -0.02861499786376953 C41.06240008873226 -0.030465329549144826 47.271129784891855 -0.038012512778550445 53.479862213134766 -0.044750213623046875 C67.76628952425244 -0.05904264959900729 82.05271275800163 -0.0648599022698022 96.33914569951594 -0.0694421585649252 C103.39970141469166 -0.07177878098985957 110.4602563178479 -0.07538148208914208 117.52081139944494 -0.0791375357657671 C141.69241131012348 -0.09197157751589202 165.86401076985067 -0.10269141274915228 190.03561401367188 -0.10614013671875 C191.55260408423578 -0.10636176865364178 193.06959415477746 -0.10658355275802478 194.58658422529697 -0.10680548846721649 C196.107220977522 -0.10702612822672108 197.62785772976986 -0.1072466105941885 199.1484944820404 -0.1074669361114502 C202.1991155948296 -0.10790948705130177 205.2497367069056 -0.10835660277882653 208.30035781860352 -0.10880661010742188 C209.0567329983786 -0.10891600098460685 209.81310817815364 -0.10902539186179183 210.59240381792188 -0.10913809761404991 C235.12134053947045 -0.11276923646033765 259.65024771671597 -0.12869218203348964 284.17917312309146 -0.15199697390198708 C310.1162562832758 -0.17659457981363857 336.0533225550164 -0.1903129191717312 361.99041771888733 -0.19150805473327637 C364.8377521873781 -0.19167950778034992 367.6850866492023 -0.19189493557752257 370.53242111206055 -0.19214248657226563 C371.23350832393385 -0.19219825522975498 371.9345955358074 -0.19225402388724433 372.65692781470716 -0.1923114825040102 C383.9372318601694 -0.1934619113258691 395.2175055677775 -0.2044830933504045 406.49779937043786 -0.21902954205870628 C417.8359930910042 -0.2333978412357851 429.17413697923894 -0.23637716958864985 440.5123412311077 -0.22858956456184387 C446.6542681264639 -0.22467855730735664 452.7960929675528 -0.22563481290063692 458.9380073547363 -0.23964691162109375 C464.56116942474046 -0.2523583396817912 470.1841524619597 -0.25121245588235297 475.8073141872883 -0.23905619978904724 C477.8409483855378 -0.23709444622630826 479.87459514735326 -0.2401996451506534 481.9082116782665 -0.24890056252479553 C506.02846387992884 -0.3455617915765856 506.02846387992884 -0.3455617915765856 514.3560218811035 6.131427764892578 C522.0216650588707 13.856037428642537 524.4975381236874 20.974583605322152 524.5330238342285 31.704425811767578 C524.5428806304931 33.000349044799805 524.5428806304931 33.000349044799805 524.5529365539551 34.322452545166016 C524.5726331902797 37.179351477544 524.5843248909993 40.036197892929295 524.5943031311035 42.89314651489258 C524.5983786582947 43.871175479888905 524.6024541854858 44.84920444488523 524.606653213501 45.85687065124512 C524.6274997863019 51.034894689581904 524.6418068798663 56.21289234777191 524.6511878967285 61.39094924926758 C524.6622413364735 66.72610996874027 524.6966331632701 72.06085236922377 524.7363595962524 77.39586544036865 C524.7625667166476 81.50955326953306 524.7708834409503 85.62314209266458 524.7744693756104 89.73690605163574 C524.7793257600681 91.70279447787766 524.7909125693255 93.6686787633572 524.8095073699951 95.63448524475098 C524.8339830983493 98.39380825527496 524.8329183480205 101.15205763279243 524.8259925842285 103.91145706176758 C524.8388026428223 104.71438186645514 524.851612701416 105.51730667114259 524.8648109436035 106.34456253051758 C524.7898570478696 114.5899802454777 521.6413778535168 121.53333170461724 516.0435218811035 127.56502151489258 C506.60942179628944 136.3221375658427 495.5000358532243 136.4279645146812 483.1944007873535 136.45027542114258 C481.9109678649902 136.4603210449219 480.627534942627 136.47036666870122 479.3052101135254 136.48071670532227 C475.79830285435673 136.5078958657797 472.29143571455313 136.52315460625323 468.784451007843 136.53614473342896 C465.0504821611471 136.55199306997997 461.3165896832638 136.57875965580138 457.5826759338379 136.60417556762695 C451.269681226716 136.64565366801105 444.9566813823135 136.68010619120855 438.6436195373535 136.70955276489258 C429.94184069939934 136.75014978525883 421.24017324607166 136.8031021108926 412.53848004341125 136.85883259773254 C405.5948637164737 136.90279571447786 398.6512253335811 136.94313657158375 391.7075843811035 136.98299026489258 C390.64911576032637 136.98911417722707 390.64911576032637 136.98911417722707 389.5692639350891 136.99536180496216 C319.1234256011152 137.39917768507837 248.67107538677521 137.07019468389444 178.22472667694092 136.89571285247803 C174.58628158293283 136.88674938447514 170.94783636124873 136.8778398347872 167.30939102172852 136.86897659301758 C166.40562009222805 136.86677290953696 165.50184916272758 136.86456922605635 164.57069123536348 136.86229876428843 C149.80865774083043 136.8266215698227 135.0466245461912 136.8019044076857 120.28456347435713 136.78108074516058 C105.01749290087764 136.7593142521988 89.75047694124726 136.72629859204255 74.48345285654068 136.6827262043953 C65.11824060834374 136.65634047845867 55.75309599087916 136.6385494235908 46.38784844428301 136.6320817247033 C39.998090131573235 136.6268232277896 33.60841812218325 136.61059113411602 27.218706123530865 136.58576210588217 C23.541081007825824 136.57178930594523 19.863610258101403 136.56256117179294 16.185956954956055 136.56641960144043 C12.194340315938291 136.57048090569413 8.203159743087326 136.55136554863054 4.211597442626953 136.53015518188477 C3.061242107748967 136.5350027579069 1.910886772871038 136.53985033392905 0.72567218542099 136.5448448061943 C-10.052950601750922 136.4504784606935 -19.669288921224307 134.84155381382675 -27.643978118896484 127.13142776489258 C-33.43565429357312 120.08749728217776 -35.09917002032114 112.00646549991438 -35.048030853271484 103.09846878051758 C-35.05489410400389 102.24514968872074 -35.06175735473633 101.3918305969238 -35.06882858276367 100.51265335083008 C-35.086979670212656 97.72003945961785 -35.08327598460332 94.92799365398787 -35.077571868896484 92.13533401489258 C-35.08213918731201 90.17674962311605 -35.08744639197877 88.21816683078578 -35.09345626831055 86.25958633422852 C-35.10236436666125 82.16528668637557 -35.09999039493985 78.07118233827168 -35.090023040771484 73.97688674926758 C-35.07853477183767 68.75063937925427 -35.098754639638685 63.525067840543954 -35.12794017791748 58.298909187316895 C-35.14635520049953 54.25721384612012 -35.14599918958152 50.21567890178437 -35.140302658081055 46.17395210266113 C-35.1401501011953 44.247984459959696 -35.14613975106249 42.32200548958065 -35.15859413146973 40.39607810974121 C-35.23041388461726 27.471020391302943 -34.96417195369742 16.73133859799657 -25.636165618896484 6.822834014892578 C-18.243246292424203 0.5461005475151524 -9.328314337754591 -0.020726336287452796 0 0 Z " fill="#FED200" transform="translate(272.6439781188965,431.8685722351074)"/>
<path d="M0 0 C0.8146874999999909 0.6097265624999864 1.6293749999999818 1.2194531250000011 2.46875 1.84765625 C5.609078579094444 4.517904779446042 7.994302874815446 7.493295613205532 10.5 10.75 C10.960195312499991 11.332656250000014 11.420390624999982 11.915312499999999 11.89453125 12.515625 C12.352148437499977 13.103437499999984 12.809765625000011 13.691249999999997 13.28125 14.296875 C13.722409020662326 14.858609712123865 14.163568041324652 15.42034442424773 14.618095517158508 15.999101400375366 C16 18 16 18 16.840216517448425 20.077423334121704 C17.940852428166806 22.61757981438643 18.925519801907853 24.145901297651164 21 26 C25.876952846016138 27.234054644719322 30.76662938161178 27.052411812393075 35.763702392578125 26.97308349609375 C37.30699253165267 26.977838338062895 38.8502751698781 26.986117062691164 40.393529772758484 26.997618913650513 C44.637158136621224 27.019100754841247 48.87922607196987 26.990746265499638 53.12269973754883 26.954431772232056 C57.698215583468254 26.924018281146687 62.27359439857082 26.939791564445272 66.84916687011719 26.950149536132813 C74.7799329267981 26.961936604506548 82.71021694217507 26.944886296563368 90.64090347290039 26.908775329589844 C102.11928962042742 26.856905164560544 113.59730836132428 26.852920376695295 125.07579050958157 26.861397176980972 C143.71401945931416 26.874231336799994 162.35205609473428 26.85430417932639 180.990234375 26.81103515625 C182.1060019920767 26.808452517092235 183.22176960915328 26.80586987793447 184.37134836614132 26.803208976984024 C185.4884840090573 26.80062128275631 186.60561965197326 26.798033588528654 187.7566078901291 26.79536747932434 C203.58024512289467 26.758784101906542 219.40387104807473 26.729908326815973 235.2275390625 26.71044921875 C236.34012935176497 26.709072813689716 237.45271964102983 26.70769640862943 238.5990247875452 26.706278294324875 C257.1596906819286 26.683975491397007 275.7203418883439 26.677854331255105 294.28102004528046 26.679975748062134 C305.7276040220255 26.68024012187118 317.1739535075865 26.663983579140563 328.6204766482115 26.62625750899315 C336.46789796771986 26.601048731369815 344.3152610072426 26.58938004479046 352.16272254288197 26.588269859552383 C356.68867561476293 26.58704249196063 361.2143655372803 26.57910998047214 365.7402515411377 26.553468704223633 C369.8881573380909 26.530031271847122 374.03566622083997 26.52515559739362 378.1836235374212 26.534634858369827 C379.6796381017414 26.53477606056225 381.1756727064867 26.52817784915385 382.67161954939365 26.513942688703537 C395.00535662206596 26.40240092837081 404.9812285250965 28.067499495486288 414.12109375 36.84765625 C420.37274358671914 44.00910959726036 421.1447000553576 51.52129866836577 421.19287109375 60.762451171875 C421.2010485839844 61.63469329833981 421.2092260742188 62.50693542480468 421.2176513671875 63.405609130859375 C421.2424095671786 66.28472218461724 421.25899751040106 69.16378621992226 421.2734375 72.04296875 C421.28142301559444 73.52331320762636 421.28142301559444 73.52331320762636 421.2895698547363 75.0335636138916 C421.3162608275044 80.25812628945368 421.33564800629847 85.4826654146201 421.35009765625 90.707275390625 C421.363428574707 95.01868950622793 421.39127182021775 99.32962942250208 421.43212890625 103.640869140625 C421.48157848077915 108.8597670400049 421.506233632222 114.07823541502711 421.5133247375488 119.2973575592041 C421.5200151086358 121.27918503667121 421.53517905739193 123.26100375893316 421.5592155456543 125.24269676208496 C421.80095462745817 146.3798785408141 421.80095462745817 146.3798785408141 414.2571716308594 154.9889373779297 C404.3066171640661 164.6395995004599 392.79280064931413 164.57519605423266 379.74977111816406 164.49447631835938 C377.8886915439564 164.49765557558152 376.0276142813457 164.502585825084 374.1665434241295 164.50910913944244 C369.06815059099756 164.52190336401145 363.9700767214043 164.50982551195386 358.8717049360275 164.4935805797577 C353.3671779453434 164.48040029136547 347.86268585177606 164.49032929700337 342.358154296875 164.49734497070313 C331.5807014497127 164.50741996763463 320.80337150380615 164.49615680159195 310.0259339287877 164.47764436900616 C297.47237064153205 164.45685774086672 284.91883380239256 164.4570172597641 272.3652565404773 164.45798952877522 C249.28742548157993 164.4590207353296 226.2096508968234 164.43895645185853 203.13184450101107 164.40898464806378 C182.07738897223157 164.3817413102272 161.02297886599047 164.36926200438268 139.968505859375 164.37060546875 C138.61669945965832 164.37068629148484 137.2648930599354 164.37076701115086 135.91308666020632 164.37084762752056 C134.91061227790192 164.37090867952213 134.91061227790192 164.37090867952213 133.8878858878743 164.37097096489742 C130.52346314377087 164.37117256560788 127.15904039934043 164.37135372808996 123.79461765289307 164.3715114593506 C123.13082674399482 164.3715448861849 122.46703583509662 164.37157831301909 121.78313005017117 164.37161275278777 C100.39686893310187 164.37250053340676 79.01061611884347 164.35825623446783 57.62436159327626 164.3427857682109 C48.87648677278793 164.33675742412106 40.12861587946418 164.33462715628616 31.380739212036133 164.33372116088867 C20.717411512760236 164.33235554963744 10.054119780545932 164.32340761141336 -0.6091926619410515 164.30505554378033 C-6.048478133740446 164.29583414660817 -11.487717674247904 164.2897231849356 -16.927011489868164 164.29224395751953 C-21.909184228390473 164.29444089217264 -26.891255533834283 164.2873554941948 -31.873407132923603 164.27294690907001 C-33.67275005263764 164.26933342519135 -35.47210348717579 164.2690467718781 -37.271446757018566 164.2724814862013 C-61.95514935107258 164.31437091492103 -78.00600826955849 157.14205800986394 -98.35400390625 143.7109375 C-102.50238410079254 141.02853775804078 -106.74313448008883 138.50559070084518 -111 136 C-115.0603764576324 139.92939657190232 -118.82452052720026 144.09305718401367 -122.58984375 148.3046875 C-125.69506380792058 151.77729988243954 -128.82653034889347 155.22595785260575 -131.95703125 158.67578125 C-133.3686252870057 160.2817056324443 -134.72967142763656 161.93297682541316 -136.046875 163.6171875 C-139.71410354381985 168.0912063234602 -143.37747791461086 170.53180941546736 -149.12890625 171.55859375 C-154.9073006823781 171.88668335276537 -159.0849207864291 171.65142093189786 -163.6875 167.9375 C-167.4948809324306 163.929307836956 -169.02299658161343 160.33450433394614 -168.984375 154.734375 C-168.11350399673552 142.779691227915 -158.00564611414123 134.9079465744736 -149.9140625 126.9453125 C-147.32857296033572 124.31761088621874 -144.9300559348923 121.54988272433559 -142.54296875 118.7421875 C-140.99999999999997 117 -140.99999999999997 117 -138.5625 114.875 C-136.31716249425074 112.18059499310084 -136.7136953278567 110.44810409494335 -137 107 C-138.14775473101693 104.10003732862174 -138.14775473101693 104.10003732862174 -139.75 101.1875 C-149.0508511394831 81.57196086696695 -150.74088625308576 56.63648818304273 -143.73193359375 35.95458984375 C-135.5560468912123 14.121318015692339 -120.01262037796965 -4.823438589820682 -98.8603515625 -15.03271484375 C-65.0373207538268 -30.372445388060584 -27.769522916026403 -24.075820348670334 0 0 Z M-105.76953125 26.0703125 C-107.26472967498376 28.000821858839743 -108.64486684175444 29.969334997103488 -110 32 C-110.4395703125 32.6123046875 -110.87914062499999 33.224609375 -111.33203125 33.85546875 C-118.0667867218927 43.723614985250606 -119.36480307404713 52.90540027844304 -119.4375 64.625 C-119.44757080078125 65.68581787109372 -119.4576416015625 66.7466357421875 -119.468017578125 67.839599609375 C-119.29363500170939 83.73067566869253 -112.7368690659149 96.12988041339742 -101.796875 107.3359375 C-98.12771717813251 110.83086157054976 -94.43277669818184 113.56466167534899 -90 116 C-89.1633984375 116.46019531249999 -88.32679687500001 116.92039062499998 -87.46484375 117.39453125 C-77.88833488016013 122.40667088474271 -70.13677447446327 123.3862534548835 -59.375 123.4375 C-57.582558593750036 123.48680664062499 -57.582558593750036 123.48680664062499 -55.75390625 123.537109375 C-40.208531509395925 123.62974161884972 -27.123113124531244 116.89679834465295 -15.8125 106.5 C-4.067000441852485 94.1934096986289 0.5497027077585699 78.88315908841673 0.41796875 62.14306640625 C-0.09140947409781575 46.13267210007524 -6.90537222538677 32.60510090631345 -17.81640625 20.9921875 C-29.866873200295117 9.998022661626976 -46.48118313472958 4.1326733399256455 -62.76953125 4.7578125 C-79.96717737472056 6.625157613367207 -94.30091268620038 12.65228195074215 -105.76953125 26.0703125 Z " fill="#498FFE" transform="translate(376,238)"/>
<path d="M0 0 C-1.64453125 1.16796875 -1.64453125 1.16796875 -4 2 C-6.69921875 0.98828125 -6.69921875 0.98828125 -9.6875 -0.6875 C-22.88743038216535 -7.686013813732586 -36.10621649184645 -9.572150146771804 -51 -9 C-52.084101562499995 -8.958750000000009 -53.16820312499999 -8.91749999999999 -54.28515625 -8.875 C-71.98057202397956 -7.862628179796161 -86.87511447730338 -1.4917585906734416 -100.765625 9.3359375 C-103 11 -103 11 -105.23046875 12.109375 C-107.59781109637657 13.300885055129925 -107.94573735881187 14.610338013306915 -109 17 C-110.5 19.25 -110.5 19.25 -112 21 C-112.66 21 -113.32 21 -114 21 C-114.23976562499999 21.50660156250001 -114.47953125000001 22.01320312499999 -114.7265625 22.53515625 C-116.10958137772838 25.212103832351573 -117.640808295835 27.786267331576113 -119.173583984375 30.37939453125 C-131.11037800510707 50.82791588763513 -134.28152513454592 74.53702509976875 -128.41796875 97.5078125 C-126.64075384404282 103.63273768977297 -123.76136307886046 109.1697805755905 -120.70703125 114.7421875 C-118.28446934329287 119.36556651646163 -118.28446934329287 119.36556651646163 -118 122 C-119.31249999999997 123.75 -119.31249999999997 123.75 -121 125 C-121.66 125 -122.32 125 -123 125 C-123.268125 125.58265625000001 -123.53625 126.16531250000003 -123.8125 126.765625 C-125.01480990501994 129.02786600549808 -126.33825912590268 130.80576317730612 -128 132.75 C-128.515625 133.36359375 -129.03125 133.9771875 -129.5625 134.609375 C-131 136 -131 136 -133 136 C-133.37705078125 136.87205078124998 -133.37705078125 136.87205078124998 -133.76171875 137.76171875 C-135.1531936682916 140.27690842880475 -136.72049033061438 141.84849092224027 -138.8125 143.8125 C-141.44509862261668 146.36402221576077 -143.74079975883163 148.8495597087816 -145.8125 151.875 C-148 155 -148 155 -151 157 C-151.6615513615668 159.48065874922003 -151.6615513615668 159.48065874922003 -151.8125 162.3125 C-151.9014453125 163.2573828125 -151.990390625 164.202265625 -152.08203125 165.17578125 C-151.95999039885422 169.377473410876 -150.75230031787206 172.07216294129114 -148.125 175.3125 C-143.1692445822245 177.98860792559879 -138.49029566071766 178.0522470171128 -133 177 C-129.7516513591595 175.1557403085451 -127.49388100179476 172.75204673697021 -125 170 C-123.52352985059932 168.5597305197615 -122.04439652804541 167.12218566520505 -120.5625 165.6875 C-117.93132587214257 163.09477895685347 -117.93132587214257 163.09477895685347 -116 160 C-115.34 160 -114.68 160 -114 160 C-113.7950390625 159.4650390625 -113.59007812499999 158.93007812500002 -113.37890625 158.37890625 C-111.42608279280708 155.00987088050852 -108.74166134952017 152.6104725144549 -105.9375 149.9375 C-101.65256436528341 146.04576685369477 -101.65256436528341 146.04576685369477 -99 141 C-95.24573713302476 142.3355873208177 -92.45535310726876 144.00318060451485 -89.3125 146.4375 C-66.50835279672822 163.31011026225906 -45.60690485434242 171.16128264598376 -17.1982421875 171.1337127685547 C-15.373726685341467 171.1355822984898 -13.54921158333002 171.13788356875204 -11.72469711303711 171.14057809114456 C-6.722906576477158 171.14668467135624 -1.7211327829624565 171.14656384842004 3.280660629272461 171.14538371562958 C8.679500647997884 171.1451794274326 14.07833532832177 171.15070107029788 19.4771728515625 171.1554412841797 C30.048838525196004 171.16374152099235 40.620498622348464 171.16649581893034 51.19216728210449 171.1670536622405 C59.784077497411886 171.16752900378123 68.37598587416824 171.16958465410556 76.9678955078125 171.17275428771973 C101.32831968834392 171.18155820242612 125.68873946589144 171.18617393227828 150.04916524887085 171.18542381376028 C152.01836360692982 171.18536387946455 152.01836360692982 171.18536387946455 154.02734375 171.185302734375 C155.9989458823204 171.18524141337724 155.9989458823204 171.18524141337724 158.0103783607483 171.18517885357141 C179.32387301972437 171.18477218517 200.63734472032536 171.1943476435656 221.95083475112915 171.2084411010146 C243.8361145549453 171.2227985146842 265.7213857455031 171.22971167370036 287.6066703796387 171.22884732484818 C299.8934274867976 171.2285151947175 312.18016607837046 171.23126946198374 324.4669189453125 171.2420253753662 C334.9250055549585 171.2511218880635 345.38306524964037 171.25331251465752 355.84115409851074 171.2465159520507 C361.1769025489864 171.24324681218138 366.51259933205904 171.2432083706218 371.8483428955078 171.25186920166016 C376.7336029107282 171.2597173500278 381.6187701381343 171.2583200100836 386.50402784347534 171.24958506971598 C388.27039489411277 171.24804640021432 390.036768811593 171.24988003190947 391.8031277656555 171.25544514507055 C409.30072669972515 171.54425053706905 409.30072669972515 171.54425053706905 424 163 C430.2209975779981 156.25795440150972 431.3108169430683 148.47750993376826 431.242919921875 139.599609375 C431.2448182678222 138.8017451477051 431.24671661376954 138.00388092041015 431.24867248535156 137.1818389892578 C431.25234874488615 134.5690396434016 431.24172007846585 131.95652424868388 431.23046875 129.34375 C431.229274896526 127.51346875531794 431.2288242220433 125.68318688958192 431.2290802001953 123.8529052734375 C431.22752069168735 120.02673476360752 431.2192723778901 116.20065851996628 431.205810546875 112.37451171875 C431.1888216937109 107.48568946420835 431.18499661159 102.59697057421255 431.1857557296753 97.70812225341797 C431.1854829704681 93.93161036361641 431.1799847737368 90.15512077491735 431.1727542877197 86.37861633300781 C431.1695866064657 84.57660592062928 431.16760468682116 82.77459299896827 431.16686058044434 80.97257995605469 C431.16467670915256 78.44847365984583 431.15588880812936 75.92447378039287 431.145263671875 73.400390625 C431.1457168579102 72.66560989379883 431.1461700439453 71.93082916259766 431.1466369628906 71.17378234863281 C431.11729572798936 66.3731475507023 430.6716945018719 61.75457741206321 430 57 C434.30101730120305 61.301017301203046 434.3017455420926 64.76664641194338 434.306396484375 70.535400390625 C434.31472000122073 71.4073504638672 434.32304351806636 72.2793005371094 434.3316192626953 73.17767333984375 C434.3557614830754 76.0677128448354 434.36449899692616 78.95752650300324 434.37109375 81.84765625 C434.3800608908224 83.85965543004284 434.38918275277183 85.87165392597024 434.39845275878906 87.88365173339844 C434.41495957422967 92.10791645709583 434.4226452477351 96.33210180666111 434.425537109375 100.556396484375 C434.43090521037834 105.95103413793277 434.4685129570445 111.34491737905091 434.5142812728882 116.73934268951416 C434.54413953671644 120.89941574252668 434.5512626634153 125.05930965739799 434.5522632598877 129.21948051452637 C434.5564525572024 131.20687735442993 434.56883466350416 133.19427536675857 434.5897808074951 135.18156623840332 C434.7953811177598 156.38663130141663 434.7953811177598 156.38663130141663 427.25730895996094 164.98866271972656 C417.3070619258872 174.6397504690758 405.7927534238097 174.57519576196694 392.74977111816406 174.49447631835938 C390.8886915439564 174.49765557558152 389.0276142813457 174.502585825084 387.1665434241295 174.50910913944244 C382.06815059099756 174.52190336401145 376.9700767214043 174.50982551195386 371.8717049360275 174.4935805797577 C366.3671779453434 174.48040029136547 360.86268585177606 174.49032929700337 355.358154296875 174.49734497070313 C344.5807014497127 174.50741996763463 333.80337150380615 174.49615680159195 323.0259339287877 174.47764436900616 C310.47237064153205 174.45685774086672 297.91883380239256 174.4570172597641 285.3652565404773 174.45798952877522 C262.28742548157993 174.4590207353296 239.2096508968234 174.43895645185853 216.13184450101107 174.40898464806378 C195.07738897223157 174.3817413102272 174.02297886599047 174.36926200438268 152.968505859375 174.37060546875 C151.61669945965832 174.37068629148484 150.2648930599354 174.37076701115086 148.91308666020632 174.37084762752056 C147.91061227790192 174.37090867952213 147.91061227790192 174.37090867952213 146.8878858878743 174.37097096489742 C143.52346314377087 174.37117256560788 140.15904039934043 174.37135372808996 136.79461765289307 174.3715114593506 C136.13082674399482 174.3715448861849 135.46703583509662 174.37157831301909 134.78313005017117 174.37161275278777 C113.39686893310187 174.37250053340676 92.01061611884347 174.35825623446783 70.62436159327626 174.3427857682109 C61.87648677278793 174.33675742412106 53.12861587946418 174.33462715628616 44.38073921203613 174.33372116088867 C33.717411512760236 174.33235554963744 23.054119780545932 174.32340761141336 12.390807338058949 174.30505554378033 C6.951521866259554 174.29583414660817 1.5122823257520963 174.2897231849356 -3.927011489868164 174.29224395751953 C-8.909184228390473 174.29444089217264 -13.891255533834283 174.2873554941948 -18.873407132923603 174.27294690907001 C-20.67275005263764 174.26933342519135 -22.472103487175787 174.2690467718781 -24.271446757018566 174.2724814862013 C-48.95514935107258 174.31437091492103 -65.00600826955849 167.14205800986394 -85.35400390625 153.7109375 C-89.50238410079254 151.02853775804078 -93.74313448008883 148.50559070084518 -98 146 C-102.0603764576324 149.92939657190232 -105.82452052720026 154.09305718401367 -109.58984375 158.3046875 C-112.69506380792058 161.77729988243954 -115.82653034889347 165.22595785260575 -118.95703125 168.67578125 C-120.3686252870057 170.2817056324443 -121.72967142763656 171.93297682541316 -123.046875 173.6171875 C-126.71410354381985 178.0912063234602 -130.37747791461086 180.53180941546736 -136.12890625 181.55859375 C-141.9073006823781 181.88668335276537 -146.0849207864291 181.65142093189786 -150.6875 177.9375 C-154.4948809324306 173.929307836956 -156.02299658161343 170.33450433394614 -155.984375 164.734375 C-155.11350399673552 152.779691227915 -145.00564611414123 144.9079465744736 -136.9140625 136.9453125 C-134.32857296033572 134.31761088621874 -131.9300559348923 131.5498827243356 -129.54296875 128.7421875 C-127.99999999999997 127 -127.99999999999997 127 -125.5625 124.875 C-123.31716249425074 122.18059499310084 -123.7136953278567 120.44810409494335 -124 117 C-125.14775473101693 114.10003732862174 -125.14775473101693 114.10003732862174 -126.75 111.1875 C-136.0508511394831 91.57196086696695 -137.74088625308576 66.63648818304273 -130.73193359375 45.95458984375 C-122.5560468912123 24.12131801569234 -107.01262037796965 5.176561410179318 -85.8603515625 -5.03271484375 C-57.57900798116674 -17.85912866877817 -26.53227616220056 -15.472730186774271 0 0 Z " fill="#176DFA" transform="translate(363,228)"/>
<path d="M0 0 C8.808645613624662 0.31347493286921235 13.940046477764326 1.6642187965172752 20.1875 8.125 C27.817903576972526 17.869907745745195 26.44115532318108 30.418584694343963 26.3984375 42.12890625 C26.40046173447479 44.08845629934103 26.403376076600807 46.0480056110315 26.407135009765625 48.00755310058594 C26.411540852255712 52.10007958018218 26.405182868553425 56.19240869583405 26.39111328125 60.284912109375 C26.374011166179685 65.512255019245 26.383880258062845 70.7391360817777 26.401830673217773 75.96646213531494 C26.412705948594635 80.00810687220746 26.409205212563393 84.0496433099886 26.401447296142578 88.0912914276123 C26.399456222601657 90.01807650969124 26.401865858147175 91.94487165155931 26.408885955810547 93.87164497375488 C26.416563639433207 96.57037286115997 26.40480904430092 99.26836730666446 26.38818359375 101.967041015625 C26.394256286621044 102.7511888122558 26.4003289794922 103.53533660888672 26.406585693359375 104.34324645996094 C26.303877713036627 113.41003796576092 23.46386147210717 121.52199441088601 17 128 C8.09339868676534 134.84054759729906 -2.867530775894693 135.31876872645773 -13.69921875 135.1953125 C-15.140811080932622 135.19106765747074 -15.140811080932622 135.19106765747074 -16.611526489257813 135.18673706054688 C-19.636985669878868 135.17567313696736 -22.66213253074011 135.15059573403641 -25.6875 135.125 C-27.757157138790717 135.1149523339907 -29.826818985749014 135.10582963831553 -31.896484375 135.09765625 C-36.93110722633787 135.07577923045812 -41.96550093981773 135.04134720309708 -47 135 C-47 134.66999999999996 -47 134.34000000000003 -47 134 C-171.74 134 -296.48 134 -425 134 C-425 134.33000000000004 -425 134.65999999999997 -425 135 C-435.63180251053876 135.09300382155777 -446.26350697630664 135.16391850637365 -456.8956346511841 135.20724868774414 C-461.8334835157936 135.22805333517465 -466.7710524359402 135.2562397205121 -471.708740234375 135.3017578125 C-476.4809357598228 135.34547105417744 -481.25286334666737 135.36919057271166 -486.0252437591553 135.37950897216797 C-487.8387746193343 135.38685487145267 -489.65229212751893 135.40119884880596 -491.46570777893066 135.42292022705078 C-504.0958951444829 135.56808144042498 -516.2306474623801 135.18051485042076 -526 126 C-531.65552190936 118.93059761329994 -533.4705031478206 111.8843728204049 -533.280517578125 103.0771484375 C-533.2744146728515 102.22409118652342 -533.2683117675781 101.37103393554685 -533.2620239257813 100.49212646484375 C-533.2380215879668 97.69748098697539 -533.19184695996 94.90371524683962 -533.14453125 92.109375 C-533.1215455480748 90.15742196341841 -533.0996456954465 88.20545586579158 -533.0787811279297 86.25347900390625 C-533.0318650705976 82.17497509262489 -532.9744057542982 78.09680203495986 -532.908935546875 74.0185546875 C-532.8255009163211 68.7909364904915 -532.7645079544297 63.56335317605726 -532.7108507156372 58.33535385131836 C-532.6677554811654 54.31012864208242 -532.6148485665118 50.28508062035746 -532.5587520599365 46.26001739501953 C-532.5326815066342 44.33192482648826 -532.5091993655484 42.40379545895837 -532.4883518218994 40.47563934326172 C-532.4573931118027 37.78526773486578 -532.4137188448983 35.09540151787235 -532.366455078125 32.4052734375 C-532.3595817565918 31.60935791015629 -532.3527084350586 30.813442382812468 -532.3456268310547 29.993408203125 C-532.2655893322549 26.201014124191374 -532.1320806100903 23.217815233568672 -530 20 C-530.0066618347169 21.080264587402326 -530.0133236694336 22.16052917480465 -530.0201873779297 23.273529052734375 C-530.0811584475384 33.48338604930302 -530.1260492396757 43.69320581554564 -530.1554365158081 53.9032039642334 C-530.1710530002613 59.151529930704896 -530.1922175934782 64.39970822112036 -530.226318359375 69.64794921875 C-530.2590554358908 74.71838445101082 -530.2768831942535 79.78867815510296 -530.284631729126 84.85921096801758 C-530.2901495603439 86.78798269322465 -530.3009242289945 88.71674719238695 -530.3171901702881 90.64545822143555 C-530.8111579649484 104.6866497969088 -530.8111579649484 104.6866497969088 -527 118 C-526.34 118.65999999999997 -525.6800000000001 119.31999999999994 -525 120 C-524.3928515625 120.80244140624995 -524.3928515625 120.80244140624995 -523.7734375 121.62109375 C-520.1439005869224 126.33543638849449 -516.8406655133717 128.70473947547407 -511 130 C-508.16464547885124 130.25514535513707 -508.16464547885124 130.25514535513707 -506 130 C-506 130.33000000000004 -506 130.65999999999997 -506 131 C-457.88655815288587 131.05135467795935 -409.773114348763 131.09911658750184 -361.65965270996094 131.1270294189453 C-360.5915256858198 131.1276506757597 -360.5915256858198 131.1276506757597 -359.50182033795863 131.1282844832167 C-344.02633363085295 131.1372631888329 -328.55084663238233 131.14557373717093 -313.0753591991961 131.15319598838687 C-305.48619317766634 131.15693800095255 -297.89702723501097 131.16082766188686 -290.307861328125 131.164794921875 C-289.5526477568876 131.1651871990506 -288.7974341856502 131.16557947622618 -288.01933535467833 131.16598364058882 C-263.540316681061 131.17876787139312 -239.06131878114616 131.2013019455003 -214.58231269288808 131.22889166232198 C-189.42713255097215 131.25719198668867 -164.27196390577183 131.27565692474468 -139.11676811310463 131.28174497024156 C-135.5638422615234 131.28260943578266 -132.0109164490798 131.2835863461503 -128.4579906463623 131.28463172912598 C-127.75872331021822 131.28483399815389 -127.05945597407413 131.2850362671818 -126.33899871865287 131.28524466557428 C-115.08233992977341 131.28878993284582 -103.82571668738728 131.3027044248288 -92.5690723946318 131.32049610186368 C-81.25257133813341 131.33816111523288 -69.93611619963315 131.34466022916183 -58.61959803849459 131.3405041322112 C-52.48796033348003 131.33857934577418 -46.35642697441199 131.34156624097466 -40.22480773925781 131.35761642456055 C-34.611948566190904 131.37220160558968 -28.99926404361986 131.37296120256667 -23.386396877467632 131.36269668489695 C-21.355291091099957 131.3614278071558 -19.32417446249235 131.36524494237904 -17.2930900529027 131.37464954704046 C-14.53178681370764 131.3866924018539 -11.771113662250173 131.380197366306 -9.009819984436035 131.36914348602295 C-8.221664313972042 131.37702452689405 -7.433508643507935 131.38490556776526 -6.621469467878342 131.39302542805672 C-1.7005020856213378 131.34852505931894 2.3437138817309915 130.4590060258563 6.957376483827829 128.7409285493195 C8.953645322511761 128.01681440739014 10.933009494053408 127.48013106362669 13 127 C13 126.34000000000003 13 125.68000000000006 13 125 C13.74249999999995 124.505 14.485000000000014 124.00999999999999 15.25 123.5 C20.501400679822723 118.72599938197936 22.05149504726421 111.856378925684 23 105 C23.100094289560502 102.36914274735909 23.15699570345214 99.76431953438134 23.1611328125 97.1337890625 C23.166097717285197 96.36869018554694 23.17106262207028 95.60359130859376 23.176177978515625 94.8153076171875 C23.19071278112517 92.29873739010225 23.19758728687043 89.78223020648693 23.203125 87.265625 C23.207366065979045 85.96869342803961 23.207366065979045 85.96869342803961 23.211692810058594 84.64556121826172 C23.226650901486096 80.06936846393421 23.23590150159214 75.49320695636641 23.240234375 70.9169921875 C23.245711839891896 66.21205271443955 23.269734254789114 61.50740366795617 23.298206329345703 56.802555084228516 C23.3169155154294 53.16492908252451 23.322042713736664 49.5273718760626 23.323570251464844 45.88970184326172 C23.32657898639411 44.15631270128438 23.33454670381377 42.42292425082803 23.347755432128906 40.68958282470703 C23.958430461868033 25.726020592172517 23.958430461868033 25.726020592172517 17.9375 12.625 C17.298125000000027 12.088750000000005 16.658750000000055 11.552500000000009 16 11 C15.731874999999945 10.340000000000032 15.463750000000005 9.67999999999995 15.1875 9 C12.684064781471193 4.783688053004084 7.595548242388304 3.058318801664882 3.0625 1.75 C2.0518749999999955 1.5025000000000546 1.041249999999991 1.2549999999999955 0 1 C0 0.6699999999999591 0 0.34000000000003183 0 0 Z " fill="#FB5C78" transform="translate(771,599)"/>
<path d="M0 0 C3.489651934820472 0.00228611233853826 6.979299086081028 -0.001242062923438425 10.468950033187866 -0.003979921340942383 C17.298662956145222 -0.008408696601918564 24.12836483447802 -0.007472254854974381 30.958078175783157 -0.004567280411720276 C36.53978480427611 -0.002293717588486288 42.121488373296245 -0.0020091476661718843 47.703195333480835 -0.003091096878051758 C48.502859898358565 -0.0032443299144233606 49.302524463236296 -0.0033975629507949634 50.12642128765583 -0.0035554394125938416 C51.75233513203648 -0.0038752530298324928 53.3782489755572 -0.004199468349042945 55.004162818193436 -0.004528030753135681 C70.24036620285574 -0.007376483860866756 85.47656356654375 -0.004109965185307374 100.71276596188545 0.0012723356485366821 C113.64823594601569 0.005702034139744683 126.58369690407199 0.004995272245196247 139.51916670799255 0.0003535747528076172 C154.63872249002475 -0.005069552814461531 169.7582729304761 -0.007062573505209002 184.87782955169678 -0.004034161567687988 C186.51066835642564 -0.0037157416555828604 188.14350716194883 -0.0034013681239457583 189.77634596824646 -0.003091096878051758 C190.57903166517622 -0.002936821356456676 191.38171736210586 -0.002782545834747907 192.2087268680334 -0.0026235952973365784 C197.7295945570702 -0.0017784162339467002 203.2504586809356 -0.003202717593126181 208.7713258266449 -0.005570650100708008 C238.70653599889624 -0.017030410697771003 268.64310698681857 0.013535576793515247 298.5762197971344 0.4031400680541992 C301.14701803152684 0.43499101037241417 303.71787830905964 0.4622237595036722 306.288777589798 0.48447084426879883 C309.80996320682607 0.516637966634903 313.3303854284907 0.5674938166935135 316.8512589931488 0.6236751079559326 C317.87358327388756 0.62964811563495 318.89590755462655 0.6356211233138538 319.94921135902405 0.6417751312255859 C326.1938658397594 0.7679723840491306 331.39093081485237 1.7756636008333544 337.18371748924255 4.130724668502808 C333.78224402130763 5.264549157814486 331.65118513246193 4.848069543596807 328.18371748924255 4.130724668502808 C325.45038820676155 4.034870256973136 322.7427383332963 3.9883980365030993 320.0096709728241 3.9920594692230225 C318.7752578453719 3.9877961422503176 318.7752578453719 3.9877961422503176 317.5159070789814 3.9834466874599457 C314.74657238622694 3.9750965039809216 311.9772795094252 3.973831217731231 309.20793318748474 3.972506284713745 C307.2072135250654 3.967941157742189 305.2064948152164 3.96294120731784 303.20577722787857 3.9575427174568176 C297.6987143427406 3.9439466120569477 292.19165764065997 3.936538981781723 286.68458235263824 3.930116057395935 C280.7493654144648 3.922118593685468 274.8141613678083 3.908418562956058 268.87895369529724 3.8954036235809326 C258.592720209474 3.8736316068109318 248.30648505560225 3.8554552761600007 238.02024054527283 3.83979868888855 C227.2312353544504 3.8233618196733232 216.44223686014698 3.8048808062663966 205.65323996543884 3.783665418624878 C204.9825918222266 3.78234781148376 204.31194367901423 3.781030204342642 203.62097286479548 3.779672669712454 C200.21513586204355 3.77297065108246 196.8092989326742 3.7662320693830225 193.40346202999353 3.759479410946369 C169.27545146474097 3.7117072563690954 145.1474346480104 3.668524842046736 121.01941084861755 3.6280391216278076 C97.57832549456998 3.5886955555307622 74.1372453167362 3.5472745591704324 50.696168661117554 3.5030391216278076 C49.97370323061011 3.5016765918861665 49.25123780010267 3.500314062144639 48.506879477761686 3.4989102436229587 C41.251631940608036 3.4852249535920237 33.99638448391079 3.4714974082588697 26.741137085249647 3.4577389031182975 C11.961158852101676 3.429711818958708 -2.8188199060750208 3.4019667799228728 -17.598798990249634 3.37439227104187 C-18.278369179284198 3.3731240720767346 -18.957939368318762 3.371855873111599 -19.658102593384683 3.370549243874848 C-65.04415416879806 3.285883123584199 -110.43021749906421 3.2078124764478844 -155.81628251075745 3.1307246685028076 C-155.81628251075745 2.8007246685027667 -155.81628251075745 2.4707246685028394 -155.81628251075745 2.1307246685028076 C-155.23743019104006 2.126492729187021 -154.65857787132262 2.122260789871234 -154.06218457221985 2.1179006099700928 C-139.9117652945858 2.0141417076124526 -125.761390984902 1.9054409936919683 -111.6110508441925 1.7913854122161865 C-104.76777482095213 1.7363432535591983 -97.924493614749 1.6829124300508056 -91.08117508888245 1.6334102153778076 C-84.46753921441234 1.585564753505082 -77.85395065078609 1.53304995687688 -71.24037194252014 1.4777839183807373 C-68.72684812912195 1.4575243515569127 -66.21331154262072 1.4387861513355347 -63.69976449012756 1.4216506481170654 C-60.15839778309174 1.397239041960006 -56.61711661900404 1.3672410764214646 -53.075803995132446 1.3360469341278076 C-51.54369530677798 1.3274137401581356 -51.54369530677798 1.3274137401581356 -49.980634927749634 1.3186061382293701 C-44.724367740354296 1.2665416145755444 -39.53038209767277 1.0465289953344836 -34.29047989845276 0.6259791851043701 C-22.87594552205144 -0.17671359023370314 -11.436962238806132 -0.0111079587857148 0 0 Z " fill="#FC8795" transform="translate(442.81628251075745,594.8692753314972)"/>
<path d="M0 0 C158.39999999999998 0 316.79999999999995 0 480 0 C480 0.6599999999999682 480 1.32000000000005 480 2 C464.86089240946717 2.1331503839556945 449.7217629048638 2.2635863047923976 434.5826072692871 2.3911514282226563 C427.54643437895743 2.4504966941833572 420.5102697237129 2.510593369762546 413.47412109375 2.57275390625 C407.31064635913594 2.627202611618827 401.14715927306975 2.6799424952068875 394.9836552143097 2.7309670448303223 C391.7481128016873 2.757803316559034 388.51258275438965 2.7855200875570745 385.27706146240234 2.8148040771484375 C337.04837352558275 3.2493798087692767 288.814837951114 2.971992690466095 240.5852852165699 2.8064568638801575 C232.21917207346655 2.7777758530205574 223.85305561738602 2.7501193115646174 215.48693892359734 2.722496807575226 C200.58032027799175 2.6732540333780435 185.67370426587865 2.623257922342191 170.76708984375 2.57275390625 C156.32926567995344 2.5238398549963676 141.89144032839613 2.4753018595397407 127.45361328125 2.42724609375 C126.55624125152826 2.4242590981722287 125.65886922180653 2.421272102594344 124.73430410027504 2.418194591999054 C120.23023537784502 2.4032045758093545 115.72616663168105 2.3882217045105563 111.22209787368774 2.3732423782348633 C74.14806150558894 2.249934902968107 37.07402937846058 2.1253905855542143 0 2 C0 1.3400000000000318 0 0.67999999999995 0 0 Z " fill="#FDD215" transform="translate(272,566)"/>
<path d="M0 0 C-1.64453125 1.16796875 -1.64453125 1.16796875 -4 2 C-6.69921875 0.98828125 -6.69921875 0.98828125 -9.6875 -0.6875 C-22.88743038216535 -7.686013813732586 -36.10621649184645 -9.572150146771804 -51 -9 C-52.084101562499995 -8.958750000000009 -53.16820312499999 -8.91749999999999 -54.28515625 -8.875 C-71.98057202397956 -7.862628179796161 -86.87511447730338 -1.4917585906734416 -100.765625 9.3359375 C-103 11 -103 11 -105.23046875 12.109375 C-107.59781109637657 13.300885055129925 -107.94573735881187 14.610338013306915 -109 17 C-110.5 19.25 -110.5 19.25 -112 21 C-112.66 21 -113.32 21 -114 21 C-114.23976562499999 21.50660156250001 -114.47953125000001 22.01320312499999 -114.7265625 22.53515625 C-116.10958137772838 25.212103832351573 -117.640808295835 27.786267331576113 -119.173583984375 30.37939453125 C-131.11037800510707 50.82791588763513 -134.28152513454592 74.53702509976875 -128.41796875 97.5078125 C-126.64075384404282 103.63273768977297 -123.76136307886046 109.1697805755905 -120.70703125 114.7421875 C-118.28446934329287 119.36556651646163 -118.28446934329287 119.36556651646163 -118 122 C-119.31249999999997 123.75 -119.31249999999997 123.75 -121 125 C-121.66 125 -122.32 125 -123 125 C-123.268125 125.58265625000001 -123.53625 126.16531250000003 -123.8125 126.765625 C-125.01480990501994 129.02786600549808 -126.33825912590268 130.80576317730612 -128 132.75 C-128.515625 133.36359375 -129.03125 133.9771875 -129.5625 134.609375 C-131 136 -131 136 -133 136 C-133.37705078125 136.87205078124998 -133.37705078125 136.87205078124998 -133.76171875 137.76171875 C-135.1531936682916 140.27690842880475 -136.72049033061438 141.84849092224027 -138.8125 143.8125 C-141.44509862261668 146.36402221576077 -143.74079975883163 148.8495597087816 -145.8125 151.875 C-148 155 -148 155 -151 157 C-151.6615513615668 159.48065874922003 -151.6615513615668 159.48065874922003 -151.8125 162.3125 C-151.9014453125 163.2573828125 -151.990390625 164.202265625 -152.08203125 165.17578125 C-151.95999039885422 169.377473410876 -150.75230031787206 172.07216294129114 -148.125 175.3125 C-143.1692445822245 177.98860792559879 -138.49029566071766 178.0522470171128 -133 177 C-129.75316574686158 175.1566001067087 -127.48538430272234 172.75867344804243 -125 170 C-123.5481014783042 168.51451663705495 -122.08984390715216 167.03521941202933 -120.625 165.5625 C-119.97789062499999 164.8831640625 -119.33078125 164.20382812499997 -118.6640625 163.50390625 C-117 162 -117 162 -115 162 C-115.57666501352378 165.46757777868913 -116.71005167411303 167.046635597589 -119.25 169.4375 C-119.88164062499999 170.0394921875 -120.51328125 170.641484375 -121.1640625 171.26171875 C-122.0728515625 172.12216796874998 -122.0728515625 172.12216796874998 -123 173 C-124.299375 174.36124999999998 -124.299375 174.36124999999998 -125.625 175.75 C-131.04460139369758 180.88435921508187 -135.41995441306906 181.7176796568317 -142.7578125 181.54296875 C-147.97831844211504 180.66869124885062 -150.91255100280938 178.2019025122193 -154 174 C-156.41944452706272 168.77399982154452 -156.4558401646792 163.53023847790882 -155 158 C-150.7338663640194 149.81678002552815 -143.429040791933 143.35646643668304 -136.9140625 136.9453125 C-134.32857296033572 134.31761088621874 -131.9300559348923 131.5498827243356 -129.54296875 128.7421875 C-127.99999999999997 127 -127.99999999999997 127 -125.5625 124.875 C-123.31716249425074 122.18059499310084 -123.7136953278567 120.44810409494335 -124 117 C-125.14775473101693 114.10003732862174 -125.14775473101693 114.10003732862174 -126.75 111.1875 C-136.0508511394831 91.57196086696695 -137.74088625308576 66.63648818304273 -130.73193359375 45.95458984375 C-122.5560468912123 24.12131801569234 -107.01262037796965 5.176561410179318 -85.8603515625 -5.03271484375 C-57.57900798116674 -17.85912866877817 -26.53227616220056 -15.472730186774271 0 0 Z " fill="#2E7DF7" transform="translate(363,228)"/>
<path d="M0 0 C4.94814763209564 2.9441114040745617 8.107950581544515 6.17678764575362 11.5625 10.75 C12.018183593749995 11.332656250000014 12.473867187499991 11.915312499999999 12.943359375 12.515625 C13.623017578124973 13.397343750000005 13.623017578124973 13.397343750000005 14.31640625 14.296875 C14.75152782559394 14.858609712123865 15.186649401187879 15.42034442424773 15.63495647907257 15.999101400375366 C17 18 17 18 17.836783289909363 20.077423334121704 C18.938925515453207 22.617594665516947 19.924453335021667 24.14614165421358 22 26 C26.876975622500254 27.234002045429293 31.7666176737863 27.052411998254286 36.763702392578125 26.97308349609375 C38.30699253165267 26.977838338062895 39.8502751698781 26.986117062691164 41.393529772758484 26.997618913650513 C45.637158136621224 27.019100754841247 49.879226071969924 26.99074626549958 54.12269973754883 26.954431772232056 C58.69821558346831 26.924018281146687 63.27359439857082 26.939791564445272 67.84916687011719 26.950149536132813 C75.7799329267981 26.961936604506548 83.71021694217512 26.944886296563368 91.64090347290039 26.908775329589844 C103.11928962042742 26.856905164560544 114.5973083613244 26.852920376695295 126.07579050958157 26.861397176980972 C144.71401945931416 26.87423133680005 163.35205609473428 26.85430417932639 181.990234375 26.81103515625 C183.1060019920767 26.808452517092235 184.22176960915328 26.80586987793447 185.37134836614132 26.803208976984024 C186.4884840090573 26.80062128275631 187.60561965197326 26.798033588528654 188.7566078901291 26.79536747932434 C204.58024512289467 26.758784101906542 220.40387104807462 26.729908326815973 236.2275390625 26.71044921875 C237.34012935176497 26.709072813689716 238.45271964102983 26.70769640862943 239.5990247875452 26.706278294324875 C258.1596906819286 26.683975491397007 276.7203418883438 26.677854331255105 295.28102004528046 26.679975748062134 C306.7276040220254 26.68024012187118 318.1739535075867 26.663983579140563 329.6204766482115 26.62625750899315 C337.46789796771986 26.601048731369815 345.3152610072427 26.58938004479046 353.16272254288197 26.588269859552383 C357.68867561476293 26.58704249196063 362.2143655372802 26.57910998047214 366.7402515411377 26.553468704223633 C370.8881573380911 26.530031271847122 375.03566622083986 26.52515559739362 379.1836235374212 26.534634858369827 C380.6796381017414 26.53477606056225 382.1756727064867 26.52817784915385 383.67161954939365 26.513942688703537 C395.9923004286917 26.402519003758982 406.0041254937287 28.052708138207436 415.1171875 36.85546875 C418.8686240684524 41.12837056759406 421.19202461653003 45.23724688308005 421.25 51 C421.1675 51.99000000000001 421.08500000000004 52.98000000000002 421 54 C420.6700000000001 54 420.3399999999999 54 420 54 C419.6700000000001 51.69 419.3399999999999 49.379999999999995 419 47 C418.3399999999999 47 417.68000000000006 47 417 47 C416.6700000000001 45.35000000000002 416.3399999999999 43.69999999999999 416 42 C415.01 41.670000000000016 414.02 41.34000000000003 413 41 C410.8125 39.06249999999994 410.8125 39.06249999999994 409 37 C409 36.34000000000003 409 35.68000000000001 409 35 C404.37892906863044 33.38262517402063 399.75398670423965 32.14751403205781 395 31 C395 30.339999999999975 395 29.680000000000007 395 29 C270.26 29.329999999999984 145.51999999999998 29.660000000000025 17 30 C17.329999999999984 29.339999999999975 17.660000000000025 28.680000000000007 18 28 C16.850624169222726 25.545889722637924 16.850624169222726 25.545889722637924 15.1875 22.9375 C14.644804687500027 22.03902343750002 14.102109374999998 21.140546874999984 13.54296875 20.21484375 C12.189361137492313 17.89540450319538 12.189361137492313 17.89540450319538 10 17 C9.670000000000016 17.659999999999997 9.339999999999975 18.319999999999993 9 19 C8.670000000000016 18.00999999999999 8.339999999999975 17.02000000000001 8 16 C8.660000000000025 16 9.319999999999993 16 10 16 C9.257499999999993 15.071875000000006 9.257499999999993 15.071875000000006 8.5 14.125 C7 12 7 12 7 10 C6.339999999999975 10 5.680000000000007 10 5 10 C3.3126772279256897 8.017395742812681 1.6463394251293835 6.016765795783527 0 4 C-0.660000000000025 3.6699999999999875 -1.3199999999999932 3.3400000000000034 -2 3 C-1 1 -1 1 0 0 Z " fill="#649FFB" transform="translate(375,238)"/>
<path d="M0 0 C1.0737890624999977 -0.020624999999995453 2.1475781249999955 -0.041249999999990905 3.25390625 -0.0625 C20.00080847897476 -0.14311084105403893 33.68183273463336 5.958346673413928 46 17.25 C52.85770603314836 24.29819786740245 57.0103402955167 33.36576208212102 61 42.25 C61.536088867187516 43.41172729492189 61.536088867187516 43.41172729492189 62.0830078125 44.596923828125 C66.17539360887895 56.4371678241979 64.6287105765719 74.95526259639666 59.5625 86.33984375 C59.046875 87.30019531250002 58.53125 88.26054687499999 58 89.25 C57.422500000000014 90.3444140625 56.84500000000003 91.43882812499999 56.25 92.56640625 C52.112146414229755 99.9770879952049 47.771465320066056 106.09779812603665 41 111.25 C40.34000000000003 111.25 39.68000000000001 111.25 39 111.25 C39 111.90999999999997 39 112.57 39 113.25 C36.4828781113016 114.54935463642295 33.961709128285975 115.83954372145439 31.4375 117.125 C30.733027343749995 117.4898046875 30.02855468749999 117.854609375 29.302734375 118.23046875 C20.007115362647426 122.94253368713726 11.974783634440882 123.58847837257639 1.625 123.5625 C0.34882812500001137 123.57861328125 -0.9273437499999773 123.5947265625 -2.2421875 123.611328125 C-9.501946522421065 123.61507800052811 -15.274298882952962 123.02673281411853 -22 120.25 C-19 119.25 -19 119.25 -15.5625 120.25 C-11.91342537069994 121.27430165032985 -11.377395194897986 121.16821828233549 -8 120.25 C-6.273778460302822 120.16127300383664 -4.54488171549724 120.11864048091934 -2.81640625 120.109375 C13.701176317904356 119.91533236316855 13.701176317904356 119.91533236316855 29 114.25 C29.95777343750001 113.73179687499999 30.915546875000018 113.21359374999997 31.90234375 112.6796875 C45.65226522127807 104.5693085800417 54.432384364818176 92.7182707845077 59 77.5 C62.296950161908626 61.510869149436644 60.526825948681505 45.49517908203933 52.1875 31.375 C43.03422144246542 17.510475126087385 31.048375434147488 7.976102375795762 14.41015625 4.5 C-2.8823684832057097 1.8424508414283594 -18.025817004915837 3.9556795202925628 -33 13.25 C-36.22708673419902 15.721026413615277 -39.149263176101385 18.35751598411963 -42 21.25 C-42.73992187499999 21.988632812499986 -43.479843749999986 22.727265624999973 -44.2421875 23.48828125 C-44.822265625 24.069648437500007 -45.40234375 24.651015625000014 -46 25.25 C-46.660000000000025 24.920000000000016 -47.31999999999999 24.589999999999975 -48 24.25 C-42.74177732336727 12.702037279548222 -29.785555343518354 6.681741296594595 -18.62890625 2.1953125 C-12.395507072045461 -0.046117813618138825 -6.583143837138209 0.030726458983139082 0 0 Z " fill="#2679F7" transform="translate(315,240.75)"/>
<path d="M0 0 C6.511532245743524 0.010418121514135237 13.02306867323847 0.014836301059972357 19.53460693359375 0.01983642578125 C32.203236987736545 0.03041010478818862 44.87185030655769 0.0471628194824234 57.54046630859375 0.06866455078125 C57.54046630859375 0.3986645507812909 57.54046630859375 0.7286645507812182 57.54046630859375 1.06866455078125 C47.736401088585126 1.815729192300978 38.00530899758587 2.228204199418542 28.16961669921875 2.27398681640625 C26.80781278765778 2.2836026130593154 25.446011626523728 2.2936146071424446 24.084213256835938 2.303985595703125 C20.440607515718398 2.3306408666718426 16.796989340231676 2.351859352370866 13.153342485427856 2.3719875812530518 C9.325691568716252 2.394094925722129 5.498077192092069 2.4213606409538215 1.6704559326171875 2.4480438232421875 C-5.553881705781237 2.497640548224126 -12.778239987059862 2.542699580046019 -20.00261741876602 2.58606618642807 C-28.23741559391931 2.63572376349191 -36.47217705770606 2.690534616273567 -44.706939578056335 2.7457457780838013 C-61.62443688476134 2.85905783493115 -78.54196845867318 2.9660042056906377 -95.45953369140625 3.06866455078125 C-95.45953369140625 3.728664550781218 -95.45953369140625 4.3886645507813 -95.45953369140625 5.06866455078125 C-97.76953369140625 5.398664550781291 -100.07953369140625 5.728664550781218 -102.45953369140625 6.06866455078125 C-102.45953369140625 6.728664550781218 -102.45953369140625 7.3886645507813 -102.45953369140625 8.06866455078125 C-103.49078369140625 8.398664550781291 -104.52203369140625 8.728664550781218 -105.58453369140625 9.06866455078125 C-111.29945688761026 11.503013173910745 -114.32417898800074 16.591527016078317 -116.83453369140625 22.06866455078125 C-117.04078369140626 22.728664550781218 -117.24703369140624 23.3886645507813 -117.45953369140625 24.06866455078125 C-118.11953369140625 24.06866455078125 -118.77953369140624 24.06866455078125 -119.45953369140625 24.06866455078125 C-119.78953369140626 53.108664550781214 -120.11953369140625 82.14866455078129 -120.45953369140625 112.06866455078125 C-120.78953369140626 112.06866455078125 -121.11953369140625 112.06866455078125 -121.45953369140625 112.06866455078125 C-122.60399410071017 105.68605317178344 -122.60407910199558 99.41602836244385 -122.59234619140625 92.94366455078125 C-122.59330291748046 91.7651391601562 -122.5942596435547 90.58661376953125 -122.59524536132813 89.37237548828125 C-122.59592489480178 86.8743280713943 -122.5940864194753 84.37627887264443 -122.58990478515625 81.87823486328125 C-122.58463001058087 78.13698111445649 -122.58981737321452 74.39585169640418 -122.59625244140625 70.65460205078125 C-122.60045030832822 59.15368696343273 -122.50756941269049 47.663394443382 -122.06109619140625 36.17022705078125 C-122.02863800048829 35.24057128906247 -121.99617980957032 34.310915527343695 -121.96273803710938 33.35308837890625 C-121.60051149787401 25.289447645190876 -120.3245142895507 18.536798959061343 -115.08453369140625 12.19366455078125 C-113.78515869140625 11.141789550781255 -113.78515869140625 11.141789550781255 -112.45953369140625 10.06866455078125 C-111.94906494140625 9.629094238281255 -111.43859619140625 9.189523925781259 -110.91265869140625 8.73663330078125 C-100.79632439712663 0.0476035975261766 -88.65135761799763 0.7132089918235351 -75.85406494140625 0.44757080078125 C-75.08412515640259 0.429010944366496 -74.31418537139893 0.4104510879516283 -73.52091407775879 0.3913288116455078 C-49.02025289518383 -0.19432514525112765 -24.50564281121666 -0.043499054132098536 0 0 Z " fill="#FC7886" transform="translate(359.45953369140625,594.9313354492188)"/>
<path d="M0 0 C4.301017301203046 4.301017301203046 4.30174554209259 7.766646411943384 4.306396484375 13.535400390625 C4.318881759643546 14.843325500488277 4.318881759643546 14.843325500488277 4.3316192626953125 16.17767333984375 C4.355761483075412 19.06771284483534 4.364498996926159 21.957526503003237 4.37109375 24.84765625 C4.380060890822392 26.859655430042835 4.389182752771831 28.87165392597018 4.3984527587890625 30.883651733398438 C4.41495957422967 35.10791645709588 4.42264524773509 39.332101806661115 4.425537109375 43.556396484375 C4.4309052103783415 48.95103413793282 4.4685129570444815 54.344917379050855 4.514281272888184 59.73934268951416 C4.544139536716443 63.89941574252663 4.551262663415287 68.05930965739799 4.552263259887695 72.21948051452637 C4.5564525572024195 74.20687735442993 4.568834663504163 76.19427536675857 4.589780807495117 78.18156623840332 C4.703865776246175 89.94798420714807 4.727707784578115 99.03562803466065 -3.0625 108.5078125 C-3.7018749999999727 109.04148437499998 -4.341249999999945 109.57515625000002 -5 110.125 C-5.639374999999973 110.684453125 -6.278749999999945 111.24390625000001 -6.9375 111.8203125 C-9.452742573656337 113.25895503265951 -11.147856665341692 113.22777533575396 -14 113 C-11.941086039129573 110.87831427202985 -9.794497016039031 108.98676292968082 -7.5 107.125 C-1.7783815564781662 102.21043089482754 0.5097804323978607 96.44915639164981 1.182699203491211 88.96916198730469 C1.2503352683274898 86.84345823466833 1.2591847153983053 84.72631857329367 1.242919921875 82.599609375 C1.2457674407959303 81.4028130340576 1.2457674407959303 81.4028130340576 1.2486724853515625 80.18183898925781 C1.2523487448861488 77.56903964340154 1.2417200784658462 74.95652424868393 1.23046875 72.34375 C1.2292748965260216 70.51346875531794 1.2288242220432721 68.68318688958192 1.2290802001953125 66.8529052734375 C1.2275206916873458 63.02673476360752 1.2192723778900927 59.200658519966225 1.205810546875 55.37451171875 C1.1888216937109064 50.48568946420835 1.1849966115900088 45.59697057421255 1.185755729675293 40.70812225341797 C1.1854829704681151 36.931610363616414 1.1799847737368054 33.15512077491735 1.1727542877197266 29.378616333007813 C1.1695866064656002 27.576605920629277 1.1676046868211643 25.77459299896833 1.166860580444336 23.972579956054688 C1.164676709152559 21.44847365984583 1.1558888081293617 18.924473780392816 1.145263671875 16.400390625 C1.1457168579102017 15.66560989379883 1.1461700439452898 14.93082916259766 1.146636962890625 14.173782348632813 C1.117295727989358 9.3731475507023 0.6716945018719116 4.754577412063156 0 0 Z " fill="#196FFB" transform="translate(793,285)"/>
<path d="M0 0 C0.3299999999999841 0 0.660000000000025 0 1 0 C0.6270159183426358 4.699599428882777 0.15979339505673806 8.634333899736646 -1.51953125 13.0390625 C-3.5021132517591695 18.80880023877421 -3.440462033730853 24.389535439200984 -3.375 30.4375 C-3.3866015625000045 31.505488281249995 -3.398203125000009 32.57347656249999 -3.41015625 33.673828125 C-3.359991457850697 47.360455583065516 1.3585137641779284 58.438183489550795 10 69 C10.174023437500011 69.93779296874999 10.174023437500011 69.93779296874999 10.3515625 70.89453125 C11.234412179493972 73.76113352257386 12.77013082712466 74.85788576207119 15.0625 76.75 C15.795976562500016 77.36359375 16.529453124999975 77.97718750000001 17.28515625 78.609375 C17.851054687499982 79.06828124999998 18.41695312500002 79.52718749999997 19 80 C16 80 13 80 10 80 C9.446523604591562 77.92446351721833 9 76.15634036187384 9 74 C7.640116531787328 72.18089662422096 6.236126602656157 70.39466308519411 4.8125 68.625 C-6.447414775911852 54.08967416782389 -8.197979700156537 37.84653871074306 -7 20 C-5.933808660397432 12.66896173791514 -3.594933111907096 6.446086959281729 0 0 Z " fill="#2175F9" transform="translate(261,272)"/>
<path d="M0 0 C0.7053790283202943 0.0008560180664289874 1.4107580566405886 0.0017120361328579747 2.13751220703125 0.002593994140625 C10.633367062951606 0.013696018780706254 19.12918752345786 0.033311818901552215 27.625 0.0625 C27.625 0.3925000000000409 27.625 0.7224999999999682 27.625 1.0625 C23.664999999999964 1.0625 19.70500000000004 1.0625 15.625 1.0625 C15.625 1.7224999999999682 15.625 2.38250000000005 15.625 3.0625 C-14.276876150527869 3.1959813508539128 -44.164346388626996 3.0065914024972926 -74.0625 2.5625 C-74.86784809112544 2.5505421829224133 -75.67319618225099 2.538584365844713 -76.50294876098633 2.526264190673828 C-86.46039825717753 2.3778497792467306 -96.41774101058456 2.223204089763499 -106.375 2.0625 C-106.375 1.732499999999959 -106.375 1.4025000000000318 -106.375 1.0625 C-96.04181212597234 0.886333931102854 -85.7084813058458 0.720459702811695 -75.375 0.5625 C-74.5983776092529 0.5506227493285678 -73.82175521850581 0.5387454986572493 -73.02159881591797 0.5265083312988281 C-48.68029025460112 0.15715849861805964 -24.34410365460542 -0.029760517915178752 0 0 Z " fill="#FD7188" transform="translate(708.375,731.9375)"/>
<path d="M0 0 C-2.647389163498474 1.4606285039991462 -3.8944833429190453 2 -7 2 C-7 2.659999999999968 -7 3.32000000000005 -7 4 C-8.03125 4.330000000000041 -9.0625 4.659999999999968 -10.125 5 C-15.839923196204012 7.434348623129495 -18.86464529659449 12.522862465297067 -21.375 18 C-21.58125000000001 18.659999999999968 -21.787499999999994 19.32000000000005 -22 20 C-22.659999999999997 20 -23.319999999999993 20 -24 20 C-24.330000000000013 49.039999999999964 -24.659999999999997 78.08000000000004 -25 108 C-25.330000000000013 108 -25.659999999999997 108 -26 108 C-27.144460409303917 101.61738862100219 -27.14454541058933 95.3473638116626 -27.1328125 88.875 C-27.133769226074207 87.69647460937495 -27.134725952148443 86.51794921875 -27.135711669921875 85.3037109375 C-27.136391203395533 82.80566352061305 -27.134552728069053 80.30761432186318 -27.13037109375 77.8095703125 C-27.125096319174617 74.06831656367524 -27.130283681808265 70.32718714562293 -27.13671875 66.5859375 C-27.14091661692197 55.08502241265148 -27.048035721284236 43.59472989260075 -26.6015625 32.1015625 C-26.569104309082036 31.171906738281223 -26.53664611816407 30.242250976562445 -26.503204345703125 29.284423828125 C-26.14097780646776 21.220783094409626 -24.864980598144456 14.468134408280093 -19.625 8.125 C-18.325625000000002 7.0731250000000045 -18.325625000000002 7.0731250000000045 -17 6 C-16.48953125 5.5604296875000045 -15.979062499999998 5.120859375000009 -15.453125 4.66796875 C-9.533617207584484 -0.4163609627925098 -7.479765781452329 -1.2261911117135469 0 0 Z " fill="#FC6F84" transform="translate(264,599)"/>
<path d="M0 0 C1.298085937499991 -0.020624999999995453 2.596171874999982 -0.041249999999990905 3.93359375 -0.0625 C13.735099167551539 -0.10246536357820446 19.967423849996976 1.5282414283244918 28.5625 6.25 C29.476445312500005 6.7450000000000045 30.39039062500001 7.240000000000009 31.33203125 7.75 C33.506734938305044 9.099089202438051 35.13484372973073 10.275323895484775 36.75 12.25 C36.75 12.909999999999997 36.75 13.569999999999993 36.75 14.25 C31.41307317831297 12.239858070927653 26.462973694816583 9.549138272978269 21.41796875 6.90625 C15.02127685327173 3.829239978663054 8.465039217539584 2.911166904887722 1.4375 2.5625 C0.7034594726562773 2.5219750976562523 -0.030581054687502274 2.4814501953125045 -0.786865234375 2.439697265625 C-6.673213160330761 2.165658721586084 -12.408520519653791 2.4299218872084225 -18.25 3.25 C-18.25 2.5900000000000034 -18.25 1.9300000000000068 -18.25 1.25 C-12.381777423735798 -0.5409743520219195 -6.071855721569818 0.023834566129806944 0 0 Z " fill="#2F7FF7" transform="translate(318.25,241.75)"/>
<path d="M0 0 C4.945678962881971 2.9426425640711784 8.11406078877377 6.174515893976263 11.5625 10.75 C12.038486328124975 11.371811523437486 12.514472656250007 11.993623046875001 13.0048828125 12.63427734375 C19.532599551846943 21.241441992847626 19.532599551846943 21.241441992847626 22 26 C21.609375 28.2109375 21.609375 28.2109375 21 30 C19.680000000000007 29.670000000000016 18.360000000000014 29.339999999999975 17 29 C17 28.00999999999999 17 27.019999999999982 17 26 C15.988550325978167 23.935802065693508 15.988550325978167 23.935802065693508 14.625 21.875 C14.184140624999998 21.171171875000027 13.743281249999995 20.467343749999998 13.2890625 19.7421875 C12.101404501853779 17.86194898424867 12.101404501853779 17.86194898424867 10 17 C9.670000000000016 17.659999999999997 9.339999999999975 18.319999999999993 9 19 C8.670000000000016 18.00999999999999 8.339999999999975 17.02000000000001 8 16 C8.660000000000025 16 9.319999999999993 16 10 16 C9.257499999999993 15.071875000000006 9.257499999999993 15.071875000000006 8.5 14.125 C7 12 7 12 7 10 C6.339999999999975 10 5.680000000000007 10 5 10 C3.3126772279256897 8.017395742812681 1.6463394251293835 6.016765795783527 0 4 C-0.660000000000025 3.6699999999999875 -1.3199999999999932 3.3400000000000034 -2 3 C-1 1 -1 1 0 0 Z " fill="#3783F4" transform="translate(375,238)"/>
<path d="M0 0 C9.628363973099908 -0.6313681293835884 17.438788017334673 1.4949167697963617 24.9375 7.75 C29.158733764276235 11.827499998109147 32.56054072022641 16.074660331514167 33.23046875 22.05859375 C33.25 23.999999999999943 33.25 23.999999999999943 33 27 C32.66999999999996 27 32.34000000000003 27 32 27 C31.66999999999996 24.689999999999998 31.340000000000032 22.379999999999995 31 20 C30.340000000000032 20 29.67999999999995 20 29 20 C28.504999999999995 17.524999999999977 28.504999999999995 17.524999999999977 28 15 C27.00999999999999 14.670000000000016 26.019999999999982 14.339999999999975 25 14 C22.8125 12.0625 22.8125 12.0625 21 10 C21 9.339999999999975 21 8.680000000000007 21 8 C16.378929068630555 6.3826251740206885 11.753986704239537 5.147514032057813 7 4 C7 3.339999999999975 7 2.680000000000007 7 2 C4.690000000000055 2 2.3799999999999955 2 0 2 C0 1.339999999999975 0 0.6800000000000068 0 0 Z " fill="#3280F6" transform="translate(763,265)"/>
<path d="M0 0 C0.9487500000000182 0.8662499999999795 1.8974999999999795 1.732500000000016 2.875 2.625 C7.241790520070936 6.365442788909263 11.991864268970858 9.202734314789097 17 12 C17.670312500000023 12.38285156249998 18.34062499999999 12.765703125000016 19.03125 13.16015625 C31.32154307869763 19.78381829856039 44.36716293165881 19.673475782801404 58 20 C58 20.329999999999984 58 20.660000000000025 58 21 C53.91691764319387 21.118008160601335 49.83428424020451 21.18784784851863 45.75 21.25 C44.610468749999995 21.283515625000007 43.47093749999999 21.317031250000014 42.296875 21.3515625 C24.86840389194151 21.549613308046105 11.24064232906045 13.948566264809529 -1 2 C-0.6700000000000159 1.339999999999975 -0.339999999999975 0.6800000000000068 0 0 Z " fill="#5497F7" transform="translate(271,342)"/>
<path d="M0 0 C0.660000000000025 0 1.3199999999999932 0 2 0 C2.38671875 0.7360546874999727 2.7734375 1.4721093750000023 3.171875 2.23046875 C5.817288775742213 7.1873455525663985 8.435158774456625 11.642971835446929 12 16 C12.116015624999989 16.62519531250001 12.232031249999977 17.250390625000023 12.3515625 17.89453125 C13.234412179493972 20.761133522573857 14.77013082712466 21.85788576207119 17.0625 23.75 C17.795976562500016 24.363593750000007 18.529453124999975 24.977187500000014 19.28515625 25.609375 C19.851054687499982 26.068281249999984 20.41695312500002 26.527187500000025 21 27 C18 27 15 27 12 27 C11.446523604591562 24.924463517218328 11 23.156340361873788 11 21 C9.58055733583251 18.996424552224482 8.135754797742834 17.057468560302937 6.625 15.125 C-0.343076486793052 6.175376762275164 -0.343076486793052 6.175376762275164 0 0 Z " fill="#2F7DF6" transform="translate(259,325)"/>
<path d="M0 0 C-2.647389163498474 1.4606285039991462 -3.8944833429190453 2 -7 2 C-7 2.659999999999968 -7 3.32000000000005 -7 4 C-8.03125 4.330000000000041 -9.0625 4.659999999999968 -10.125 5 C-14.949251401393184 7.041029439050931 -17.17447367855334 10.769829846339917 -20 15 C-20.992933399654646 16.338604139254016 -21.99100125534048 17.67346341510938 -23 19 C-23.34654062053366 15.361323484396621 -23.149687097367803 13.299374194735606 -21.5 10 C-15.376750461719098 2.6521005540629403 -9.446906569132608 -1.548673208054538 0 0 Z " fill="#F86078" transform="translate(264,599)"/>
<path d="M0 0 C0.3299999999999841 0.9900000000000091 0.660000000000025 1.9800000000000182 1 3 C0.3606250000000273 3.6187499999999773 -0.2787500000000023 4.237500000000011 -0.9375 4.875 C-4.414994787326634 8.34253061888154 -7.649053120664746 12.029141558698655 -10.9140625 15.6953125 C-12.565689560200838 17.52014389610207 -14.238131478145903 19.28301984812947 -16 21 C-16.330000000000013 19.680000000000007 -16.659999999999997 18.360000000000014 -17 17 C-16.340000000000003 17 -15.680000000000007 17 -15 17 C-14.732680664062514 16.406708984374973 -14.465361328124999 15.813417968750002 -14.18994140625 15.2021484375 C-12.984150072165676 12.970667552510122 -11.76419049928461 11.533520097337828 -9.9609375 9.765625 C-9.380859375 9.191992187499977 -8.80078125 8.618359375000011 -8.203125 8.02734375 C-7.599843749999991 7.440820312500023 -6.996562499999982 6.854296874999989 -6.375 6.25 C-5.763984375000007 5.648007812499998 -5.152968750000014 5.0460156249999955 -4.5234375 4.42578125 C-3.020113761687014 2.9459469450981146 -1.5106514420174335 1.4723532364451444 0 0 Z " fill="#2573F2" transform="translate(264,371)"/>
<path d="M0 0 C0.3299999999999841 0 0.660000000000025 0 1 0 C1.0880215245149998 3.9790243005111847 1.1407323287954796 7.957793883691863 1.1875 11.9375 C1.2252050781249864 13.612958984374984 1.2252050781249864 13.612958984374984 1.263671875 15.322265625 C1.3245558247695612 22.242741248809693 0.5969240758849423 27.57244251034257 -2 34 C-2.660000000000025 34 -3.319999999999993 34 -4 34 C-4.660000000000025 35.31999999999999 -5.319999999999993 36.639999999999986 -6 38 C-5.272467337986541 34.19281451625977 -4.387234276915763 30.445144313014453 -3.4375 26.6875 C-3.033378906249993 25.084550781250016 -3.033378906249993 25.084550781250016 -2.62109375 23.44921875 C-2.4161328124999955 22.640976562499986 -2.211171874999991 21.832734374999973 -2 21 C-1.670000000000016 21 -1.339999999999975 21 -1 21 C-0.6700000000000159 14.069999999999993 -0.339999999999975 7.139999999999986 0 0 Z " fill="#1E76F9" transform="translate(377,291)"/>
<path d="M0 0 C0.6599999999999682 1.3199999999999932 1.32000000000005 2.6399999999999864 2 4 C-4.535006605019817 13.252311756935285 -4.535006605019817 13.252311756935285 -9 16 C-11.8125 16.25 -11.8125 16.25 -14 16 C-11.96748597402268 13.899529578017393 -9.850783132266542 12.064318029146762 -7.5625 10.25 C-3.9771446268212003 7.226755426853401 -2.087790191145814 4.175580382291628 0 0 Z " fill="#2476F8" transform="translate(793,382)"/>
<path d="M0 0 C0.660000000000025 1.3199999999999932 1.3199999999999932 2.6399999999999864 2 4 C2.660000000000025 4 3.319999999999993 4 4 4 C5.8627761588003295 7.932174246477871 6.189726953270622 10.848542848606769 5.9765625 15.17578125 C5.925000000000011 16.33271484375001 5.873437500000023 17.489648437500023 5.8203125 18.681640625 C5.755859375 19.879824218750002 5.69140625 21.078007812500005 5.625 22.3125 C5.568281249999984 23.53001953124999 5.511562500000025 24.747539062499982 5.453125 26.001953125 C5.311949993244639 29.00192201855191 5.160563495826352 32.00101660265892 5 35 C4.670000000000016 35 4.339999999999975 35 4 35 C3.9854174804687545 34.421452636718755 3.970834960937509 33.84290527343751 3.955810546875 33.246826171875 C3.7091561146578442 18.896288368050534 3.7091561146578442 18.896288368050534 0.62109375 4.9609375 C0 3 0 3 0 0 Z " fill="#3180FA" transform="translate(372,279)"/>
<path d="M0 0 C0 3 0 3 -1.609375 4.68359375 C-2.3157812499999864 5.262382812499993 -3.0221874999999727 5.841171874999986 -3.75 6.4375 C-6.63588709366536 8.85263955356396 -9.390347895655168 11.281612391307476 -12 14 C-12.660000000000025 13.670000000000016 -13.319999999999993 13.339999999999975 -14 13 C-11.555379332154928 7.532720279794773 -7.442508662541911 3.195270196563058 -2.0625 0.5625 C-1.3818749999999795 0.3768750000000125 -0.7012500000000159 0.1912499999999966 0 0 Z " fill="#2D7AF8" transform="translate(281,252)"/>
<path d="M0 0 C4.9717358255113595 1.5536674454722856 9.185616076362919 4.497539995351929 13 8 C13.329999999999984 8.990000000000009 13.660000000000025 9.980000000000018 14 11 C10.61151414994572 10.356420307655583 8.191805795528012 9.067377337576147 5.3125 7.1875 C4.524882812499982 6.686054687500018 3.7372656250000205 6.1846093749999795 2.92578125 5.66796875 C0.7711552646829318 3.8017916795529345 0.3558333408187764 2.7803249172452524 0 0 Z " fill="#3583F9" transform="translate(264,369)"/>
<path d="M0 0 C1.2588036300504086 3.6523034900054085 0.7648280039113615 6.481150113946796 0.125 10.25 C-1.1058045865273414 18.15043484595253 -1.606160591432399 26.01956987902497 -2 34 C-2.3300000000000125 34 -2.6599999999999966 34 -3 34 C-3.0494686566345024 29.924924277701734 -3.085751893115315 25.84996502565093 -3.10986328125 21.774658203125 C-3.1199156988887466 20.3885595193546 -3.1335596966743537 19.002482010486005 -3.15087890625 17.616455078125 C-3.175159518150906 15.623302495318796 -3.1854203117892155 13.629994674470481 -3.1953125 11.63671875 C-3.2057861328125057 10.437487792968739 -3.2162597656250114 9.238256835937477 -3.22705078125 8.002685546875 C-3 5 -3 5 -1 2 C-0.6699999999999875 1.339999999999975 -0.3400000000000034 0.6800000000000068 0 0 Z " fill="#1B74F9" transform="translate(233,278)"/>
<path d="M0 0 C-0.5766650135238081 3.46757777868919 -1.710051674113032 5.046635597588988 -4.25 7.4375 C-5.187792968749989 8.334687499999973 -5.187792968749989 8.334687499999973 -6.14453125 9.25 C-6.7568359375 9.827499999999986 -7.369140625 10.404999999999973 -8 11 C-8.982817964701582 11.975501701937048 -9.962532703771615 12.954151896067629 -10.9375 13.9375 C-11.618124999999992 14.61812500000002 -12.298750000000013 15.298749999999984 -13 16 C-13 13 -13 13 -10.6875 10.625 C-9.800624999999997 9.75875000000002 -8.913749999999993 8.892499999999984 -8 8 C-6.9769505208475096 6.347381610599825 -5.973839463700472 4.6820863463917135 -5 3 C-2.4137931034482847 0 -2.4137931034482847 0 0 0 Z " fill="#2B78F3" transform="translate(248,390)"/>
<path d="M0 0 C2.6306930007666836 2.630693000766655 4.039939878505265 5.711483204391243 5.6875 9 C6.020722656250001 9.641953124999986 6.353945312500002 10.283906249999973 6.697265625 10.9453125 C7.5294309165006155 12.599262642774647 8.271917753046068 14.297664431190753 9 16 C8.669999999999987 16.660000000000025 8.340000000000003 17.319999999999993 8 18 C3.1037786184913045 13.919815515409425 0.6128155987596244 9.178968852390767 -1 3 C-0.6699999999999875 2.009999999999991 -0.3400000000000034 1.0199999999999818 0 0 Z " fill="#2276F4" transform="translate(235,330)"/>
<path d="M0 0 C5.852722559795211 0.4502094276765547 10.082201186152702 3.038392269883076 15 6 C13.296875 7.1484375 13.296875 7.1484375 11 8 C8.640625 7.1015625 8.640625 7.1015625 6.25 5.625 C5.450781249999977 5.142890625000007 4.651562500000011 4.660781250000014 3.828125 4.1640625 C3.224843749999991 3.7799218750000136 2.621562499999982 3.395781249999999 2 3 C2 2.3400000000000034 2 1.6800000000000068 2 1 C1.339999999999975 0.6699999999999875 0.6800000000000068 0.3400000000000034 0 0 Z " fill="#317FF6" transform="translate(348,222)"/>
<path d="M0 0 C1.6045555975635466 0.14148989321853378 3.2086376677719954 0.28835686467124333 4.8125 0.4375 C5.705820312500009 0.518710937499975 6.599140625000018 0.5999218750000068 7.51953125 0.68359375 C10 1 10 1 13 2 C13 2.660000000000025 13 3.319999999999993 13 4 C13.990000000000009 4.329999999999984 14.980000000000018 4.660000000000025 16 5 C9.99666875819338 5.631929604400682 5.365952054916534 3.3754412258919047 0 1 C0 0.6700000000000159 0 0.339999999999975 0 0 Z " fill="#3382F1" transform="translate(302,395)"/>
<path d="M0 0 C1.6500000000000057 1.3199999999999932 3.3000000000000114 2.6399999999999864 5 4 C4.3125 5.9375 4.3125 5.9375 3 8 C0.375 8.75 0.375 8.75 -2 9 C-1.3400000000000034 6.029999999999973 -0.6800000000000068 3.0600000000000023 0 0 Z " fill="#3983F7" transform="translate(240,344)"/>
<path d="M0 0 C0.9900000000000091 0 1.9799999999999898 0 3 0 C2.6699999999999875 1.1137499999999818 2.3400000000000034 2.2275000000000205 2 3.375 C0.7557078919740832 8.264542227313143 0.8150491201291459 12.985776145723435 1 18 C-1.4759953344051553 14.286006998392281 -1.2373932545760624 12.292820905190013 -1.1875 7.875 C-1.1810546874999943 6.6142968749999795 -1.1746093749999886 5.353593750000016 -1.16796875 4.0546875 C-1 1 -1 1 0 0 Z " fill="#1F73F2" transform="translate(210,382)"/>
<path d="M0 0 C0.3299999999999841 0.9900000000000091 0.660000000000025 1.9800000000000182 1 3 C-2.126216259498733 6.394177653170061 -4.565410267029449 8.606271798209264 -9 10 C-8.064094960178238 8.89448110182866 -7.126201421406336 7.790645466032231 -6.1875 6.6875 C-5.665429687500023 6.072617187499986 -5.143359374999989 5.457734374999973 -4.60546875 4.82421875 C-3.128275306175567 3.1457532067736906 -1.5996086942127477 1.561179656513957 0 0 Z " fill="#1B6FF7" transform="translate(264,371)"/>
<path d="M0 0 C3.6299999999999955 0 7.259999999999991 0 11 0 C10.009999999999991 0.3300000000000409 9.019999999999982 0.6599999999999682 8 1 C8 1.6599999999999682 8 2.32000000000005 8 3 C5.690000000000055 3 3.3799999999999955 3 1 3 C0.6699999999999591 2.009999999999991 0.34000000000003183 1.0199999999999818 0 0 Z " fill="#FA556F" transform="translate(760,731)"/>
<path d="M0 0 C4.307648153453556 1.5664175103467528 8.061714644685992 3.6833615556976156 12 6 C9 7 9 7 5.4375 5.8125 C2.104712296054572 4.055211937919694 1.0833647949718284 3.4908421171314217 0 0 Z " fill="#2172F0" transform="translate(286,384)"/>
<path d="M0 0 C-2.808042678300467 2.9640450493171784 -5.183157737358897 5.444990189294344 -9 7 C-8.020867449631993 1.3210312078655306 -5.735004862292726 -0.46500039423995077 0 0 Z " fill="#F9D11C" transform="translate(254,437)"/>
<path d="M0 0 C0 3.725270669123688 -0.6511423055092109 5.120755084172515 -3 8 C-6.6875 8.8125 -6.6875 8.8125 -10 9 C-7.864746488844617 6.812186402416216 -5.642572103762632 4.790863106968288 -3.3125 2.8125 C-2.6898828124999454 2.282695312499982 -2.0672656250000045 1.7528906250000205 -1.42578125 1.20703125 C-0.9552734374999545 0.8087109374999955 -0.48476562500002274 0.4103906249999909 0 0 Z " fill="#1C6EF6" transform="translate(789,389)"/>
<path d="M0 0 C2.1875 -0.3125 2.1875 -0.3125 5 0 C7.8125 2.5 7.8125 2.5 10 5 C7.029999999999973 4.670000000000016 4.060000000000002 4.339999999999975 1 4 C0.6700000000000159 2.680000000000007 0.339999999999975 1.3600000000000136 0 0 Z " fill="#3A83F8" transform="translate(270,348)"/>
<path d="M0 0 C0 3 0 3 -2.4375 5.5 C-3.2831250000000125 6.324999999999989 -4.128749999999997 7.149999999999977 -5 8 C-5.3300000000000125 8.990000000000009 -5.659999999999997 9.980000000000018 -6 11 C-7.319999999999993 10.339999999999975 -8.639999999999986 9.680000000000007 -10 9 C-9.445703124999994 8.517890625000007 -8.891406249999989 8.035781250000014 -8.3203125 7.5390625 C-7.595859375000003 6.907421875000011 -6.871406250000007 6.275781250000023 -6.125 5.625 C-5.405703125000002 4.998515624999982 -4.6864062500000045 4.3720312500000205 -3.9453125 3.7265625 C-2.592340197566358 2.5257316612938325 -1.2791655003048277 1.2791655003048277 0 0 Z " fill="#2270EF" transform="translate(240,396)"/>
<path d="M0 0 C0.6599999999999966 0 1.3199999999999932 0 2 0 C0.2427700919082838 4.313200683497882 -2.8062167987726525 7.903108399386326 -7 10 C-5.3259802238798954 6.043225983716127 -2.8685071523173065 3.1553578675490144 0 0 Z " fill="#4086EC" transform="translate(241,396)"/>
<path d="M0 0 C1.9800000000000182 0.660000000000025 3.9599999999999795 1.3199999999999932 6 2 C4.25 6.875 4.25 6.875 2 8 C2 6.019999999999982 2 4.0400000000000205 2 2 C1.339999999999975 2 0.6800000000000068 2 0 2 C0 1.339999999999975 0 0.6800000000000068 0 0 Z " fill="#3C85EE" transform="translate(260,268)"/>
<path d="M0 0 C3.6531667093537976 1.2497675584631338 4.780658355928779 1.6709875338931397 7 5 C3.25 6.125 3.25 6.125 1 5 C0.375 2.4375 0.375 2.4375 0 0 Z " fill="#327DF2" transform="translate(361,230)"/>
<path d="M0 0 C3 2 3 2 3.6875 5.125 C3.7906250000000057 6.073750000000018 3.8937500000000114 7.0224999999999795 4 8 C2.3499999999999943 8 0.6999999999999886 8 -1 8 C-0.7524999999999977 7.1337500000000205 -0.7524999999999977 7.1337500000000205 -0.5 6.25 C0.14462030521244174 3.7333563122645614 0.14462030521244174 3.7333563122645614 0 0 Z " fill="#4590F2" transform="translate(244,344)"/>
<path d="M0 0 C2.0004702334584294 2.546053024401658 3.8257278464636215 4.966463603364389 5 8 C4.670000000000016 8.990000000000009 4.339999999999975 9.980000000000018 4 11 C3.8968750000000227 10.360625000000027 3.7937499999999886 9.721249999999998 3.6875 9.0625 C3.460624999999993 8.38187499999998 3.2337499999999864 7.701250000000016 3 7 C2.009999999999991 6.670000000000016 1.0199999999999818 6.339999999999975 0 6 C0 4.019999999999982 0 2.0400000000000205 0 0 Z " fill="#1971F8" transform="translate(370,272)"/>
<path d="M0 0 C1 3 1 3 0.3125 5.125 C-1 7 -1 7 -3.125 7.75 C-4.053124999999994 7.873749999999973 -4.053124999999994 7.873749999999973 -5 8 C-3.8141762978707163 4.6249633093243006 -2.7242631099849177 2.3527726858960705 0 0 Z " fill="#4388F5" transform="translate(216,375)"/>
<path d="M0 0 C2.6855594040308404 2.685559404030812 3.060499738159848 5.376213275759426 4 9 C3.009999999999991 9 2.0200000000000102 9 1 9 C-1.125 3.375 -1.125 3.375 0 0 Z " fill="#1C71FA" transform="translate(235,330)"/>
<path d="M0 0 C-3.833256166790875 2.7058278824406443 -6.325381491371104 3.326136175020622 -11 3 C-9.67999999999995 2.670000000000016 -8.360000000000014 2.339999999999975 -7 2 C-7 1.339999999999975 -7 0.6800000000000068 -7 0 C-2.25 -1.125 -2.25 -1.125 0 0 Z " fill="#2D7BED" transform="translate(783,398)"/>
<path d="M0 0 C0.6599999999999966 0 1.3199999999999932 0 2 0 C1.501682760471084 3.6875475725140063 0.8993235689316066 5.604906616969515 -2 8 C-2.6599999999999966 7.670000000000016 -3.319999999999993 7.339999999999975 -4 7 C-3.3400000000000034 6.339999999999975 -2.680000000000007 5.680000000000007 -2 5 C-1.2928932188134468 3.3500841772313947 -0.6205601106649681 1.6843774432334726 0 0 Z " fill="#3379F5" transform="translate(218,373)"/>
<path d="M0 0 C0.660000000000025 0.3299999999999841 1.3199999999999932 0.660000000000025 2 1 C0.5230769230769283 5.67692307692306 0.5230769230769283 5.67692307692306 -2.125 7.3125 C-3.0531250000000227 7.652812499999982 -3.0531250000000227 7.652812499999982 -4 8 C-2.8754827282923543 5.02806149620119 -1.7770620857905897 2.6655931286858845 0 0 Z " fill="#3182F5" transform="translate(367,334)"/>
<path d="M0 0 C-0.660000000000025 0 -1.3199999999999932 0 -2 0 C-2 0.6599999999999966 -2 1.3199999999999932 -2 2 C-4.310000000000002 2.3300000000000125 -6.6200000000000045 2.6599999999999966 -9 3 C-9 2.3400000000000034 -9 1.6800000000000068 -9 1 C-5.573671668026179 -0.6179883789876612 -3.619448994942104 -1.340536664793376 0 0 Z " fill="#3B87F5" transform="translate(284,223)"/>
</svg>
